solid fp
facet normal -0.0789106639582715 0.312829582933476 0.946525625197402
outer loop
vertex 0.0150152379952811 -0.00588539423270995 0.0224456423651885
vertex 0.0109513556891819 -0.00353884094127222 0.0213312985899798
vertex 0.0106866168695481 -0.00409242065605664 0.0214921874145501
endloop
endfacet
facet normal -0.0789106639582715 0.312829582933476 0.946525625197402
outer loop
vertex 0.0109513556891819 -0.00353884094127222 0.0213312985899798
vertex 0.0150152379952811 -0.00588539423270995 0.0224456423651885
vertex 0.015279976814915 -0.00533181451792553 0.0222847535406183
endloop
endfacet
facet normal 0.350893081503575 0.395851426844528 -0.848631659330523
outer loop
vertex 0.0119303921534294 -0.00334972808831037 0.0172421661448362
vertex 0.0161072112810102 -0.00567446625304466 0.0178848077538473
vertex 0.0117785901552772 -0.00388149267639135 0.0169313528032088
endloop
endfacet
facet normal 0.350893081503575 0.395851426844528 -0.848631659330523
outer loop
vertex 0.0161072112810102 -0.00567446625304466 0.0178848077538473
vertex 0.0119303921534294 -0.00334972808831037 0.0172421661448362
vertex 0.0162590132791624 -0.00514270166496367 0.0181956210954746
endloop
endfacet
facet normal -0.417327090846973 -0.872648039461749 0.253620776887007
outer loop
vertex 0.0143573066576955 -0.00856394138094939 0.0203955939888601
vertex 0.00997862715691085 -0.00657251882662662 0.0200425843058878
vertex 0.0100286855319625 -0.00677096780429608 0.0194421390382217
endloop
endfacet
facet normal -0.417327090846973 -0.872648039461749 0.253620776887007
outer loop
vertex 0.00997862715691085 -0.00657251882662662 0.0200425843058878
vertex 0.0143573066576955 -0.00856394138094939 0.0203955939888601
vertex 0.0143072482826439 -0.00836549240327993 0.0209960392565262
endloop
endfacet
facet normal -0.239296550317923 -0.838259265740569 -0.489957716957314
outer loop
vertex 0.0148724952488236 -0.00825630804671518 0.0186351775385705
vertex 0.01032127889203 -0.00671444982248363 0.0182200670873009
vertex 0.0105438741230906 -0.00646333447006187 0.0176817225879321
endloop
endfacet
facet normal -0.239296550317923 -0.838259265740569 -0.489957716957314
outer loop
vertex 0.01032127889203 -0.00671444982248363 0.0182200670873009
vertex 0.0148724952488236 -0.00825630804671518 0.0186351775385705
vertex 0.014649900017763 -0.00850742339913694 0.0191735220379393
endloop
endfacet
facet normal -0.140324905806126 -0.707242385606555 -0.692904848310395
outer loop
vertex 0.0151267949795202 -0.00787611843952686 0.0181956210954746
vertex 0.0105438741230906 -0.00646333447006187 0.0176817225879321
vertex 0.0107981738537872 -0.00608314486287355 0.0172421661448362
endloop
endfacet
facet normal -0.140324905806126 -0.707242385606555 -0.692904848310395
outer loop
vertex 0.0105438741230906 -0.00646333447006187 0.0176817225879321
vertex 0.0151267949795202 -0.00787611843952686 0.0181956210954746
vertex 0.0148724952488236 -0.00825630804671518 0.0186351775385705
endloop
endfacet
facet normal -0.321960530381799 -0.912150162203297 -0.253620776887009
outer loop
vertex 0.014649900017763 -0.00850742339913694 0.0191735220379393
vertex 0.0101455576577462 -0.00681937782385904 0.018820512354967
vertex 0.01032127889203 -0.00671444982248363 0.0182200670873009
endloop
endfacet
facet normal -0.321960530381799 -0.912150162203297 -0.253620776887009
outer loop
vertex 0.0101455576577462 -0.00681937782385904 0.018820512354967
vertex 0.014649900017763 -0.00850742339913694 0.0191735220379393
vertex 0.0144741787834792 -0.00861235140051235 0.0197739673056054
endloop
endfacet
facet normal -0.031790350861514 -0.528028105666758 -0.848631659330523
outer loop
vertex 0.0110668479777231 -0.00559979029435553 0.0169313528032088
vertex 0.0151267949795202 -0.00787611843952686 0.0181956210954746
vertex 0.0107981738537872 -0.00608314486287355 0.0172421661448362
endloop
endfacet
facet normal -0.031790350861514 -0.528028105666758 -0.848631659330523
outer loop
vertex 0.0151267949795202 -0.00787611843952686 0.0181956210954746
vertex 0.0110668479777231 -0.00559979029435553 0.0169313528032088
vertex 0.0153954691034561 -0.00739276387100884 0.0178848077538473
endloop
endfacet
facet normal 0.0789106639582711 -0.312829582933476 -0.946525625197402
outer loop
vertex 0.0113315867973569 -0.00504621057957111 0.0167704639786386
vertex 0.0153954691034561 -0.00739276387100884 0.0178848077538473
vertex 0.0110668479777231 -0.00559979029435553 0.0169313528032088
endloop
endfacet
facet normal 0.0789106639582711 -0.312829582933476 -0.946525625197402
outer loop
vertex 0.0153954691034561 -0.00739276387100884 0.0178848077538473
vertex 0.0113315867973569 -0.00504621057957111 0.0167704639786386
vertex 0.0156602079230899 -0.00683918415622442 0.017723918929277
endloop
endfacet
facet normal 0.3219605303818 0.912150162203297 0.253620776887006
outer loop
vertex 0.011696924774875 -0.00242418141314412 0.0200425843058878
vertex 0.0162012671348919 -0.00411222698842202 0.0203955939888601
vertex 0.0118726460091588 -0.00231925341176872 0.0194421390382217
endloop
endfacet
facet normal 0.3219605303818 0.912150162203297 0.253620776887006
outer loop
vertex 0.0162012671348919 -0.00411222698842202 0.0203955939888601
vertex 0.011696924774875 -0.00242418141314412 0.0200425843058878
vertex 0.016025545900608 -0.00421715498979743 0.0209960392565262
endloop
endfacet
facet normal -0.905323812985645 0.374997401677978 -0.199413495972309
outer loop
vertex 0.0100286855319625 -0.00677096780429608 0.0194421390382217
vertex 0.01032127889203 -0.00671444982248363 0.0182200670873009
vertex 0.0101455576577462 -0.00681937782385904 0.018820512354967
endloop
endfacet
facet normal -0.905323812985645 0.374997401677978 -0.199413495972309
outer loop
vertex 0.01032127889203 -0.00671444982248363 0.0182200670873009
vertex 0.0100286855319625 -0.00677096780429608 0.0194421390382217
vertex 0.00997862715691085 -0.00657251882662662 0.0200425843058878
endloop
endfacet
facet normal -0.905323812985645 0.374997401677978 -0.199413495972309
outer loop
vertex 0.01032127889203 -0.00671444982248363 0.0182200670873009
vertex 0.00997862715691085 -0.00657251882662662 0.0200425843058878
vertex 0.0105438741230906 -0.00646333447006187 0.0176817225879321
endloop
endfacet
facet normal -0.905323812985645 0.374997401677978 -0.199413495972309
outer loop
vertex 0.0105438741230906 -0.00646333447006187 0.0176817225879321
vertex 0.00997862715691085 -0.00657251882662662 0.0200425843058878
vertex 0.01032322436886 -0.00600351348781776 0.0195481516808989
endloop
endfacet
facet normal -0.905323812985645 0.374997401677978 -0.199413495972309
outer loop
vertex 0.0105438741230906 -0.00646333447006187 0.0176817225879321
vertex 0.01032322436886 -0.00600351348781776 0.0195481516808989
vertex 0.0107981738537872 -0.00608314486287355 0.0172421661448362
endloop
endfacet
facet normal -0.905323812985645 0.374997401677978 -0.199413495972309
outer loop
vertex 0.0107981738537872 -0.00608314486287355 0.0172421661448362
vertex 0.01032322436886 -0.00600351348781776 0.0195481516808989
vertex 0.0104137934582887 -0.00600651717092859 0.0191313256965944
endloop
endfacet
facet normal -0.905323812985645 0.374997401677978 -0.199413495972309
outer loop
vertex 0.0104137934582887 -0.00600651717092859 0.0191313256965944
vertex 0.01032322436886 -0.00600351348781776 0.0195481516808989
vertex 0.0103599012374703 -0.00592682065337609 0.0195258621719867
endloop
endfacet
facet normal -0.905323812985645 0.374997401677978 -0.199413495972309
outer loop
vertex 0.0115382442666192 -0.00307019597209443 0.0195481516808989
vertex 0.0116044102086163 -0.00313211406469917 0.0191313256965944
vertex 0.011509948705824 -0.00315036045790357 0.0195258621719867
endloop
endfacet
facet normal -0.905323812985645 0.374997401677978 -0.199413495972309
outer loop
vertex 0.0107981738537872 -0.00608314486287355 0.0172421661448362
vertex 0.010508254961081 -0.00598827077772418 0.018736789221202
vertex 0.0110668479777231 -0.00559979029435553 0.0169313528032088
endloop
endfacet
facet normal -0.905323812985645 0.374997401677978 -0.199413495972309
outer loop
vertex 0.010508254961081 -0.00598827077772418 0.018736789221202
vertex 0.0107981738537872 -0.00608314486287355 0.0172421661448362
vertex 0.0104137934582887 -0.00600651717092859 0.0191313256965944
endloop
endfacet
facet normal -0.905323812985645 0.374997401677978 -0.199413495972309
outer loop
vertex 0.0110668479777231 -0.00559979029435553 0.0169313528032088
vertex 0.010508254961081 -0.00598827077772418 0.018736789221202
vertex 0.0106368483505367 -0.00587332493530617 0.0183691397546052
endloop
endfacet
facet normal -0.905323812985645 0.374997401677978 -0.199413495972309
outer loop
vertex 0.0110668479777231 -0.00559979029435553 0.0169313528032088
vertex 0.0106368483505367 -0.00587332493530617 0.0183691397546052
vertex 0.0107908101996753 -0.00566951301287834 0.0180534320003832
endloop
endfacet
facet normal -0.905323812985645 0.374997401677978 -0.199413495972309
outer loop
vertex 0.0110668479777231 -0.00559979029435553 0.0169313528032088
vertex 0.0107908101996753 -0.00566951301287834 0.0180534320003832
vertex 0.0109596482629117 -0.00539072445613903 0.0178111809202544
endloop
endfacet
facet normal -0.905323812985645 0.374997401677978 -0.199413495972309
outer loop
vertex 0.0110668479777231 -0.00559979029435553 0.0169313528032088
vertex 0.0109596482629117 -0.00539072445613903 0.0178111809202544
vertex 0.0113315867973569 -0.00504621057957111 0.0167704639786386
endloop
endfacet
facet normal -0.905323812985645 0.374997401677978 -0.199413495972309
outer loop
vertex 0.0113315867973569 -0.00504621057957111 0.0167704639786386
vertex 0.0109596482629117 -0.00539072445613903 0.0178111809202544
vertex 0.0111318565052546 -0.00505595824451015 0.0176588955249908
endloop
endfacet
facet normal -0.905323812985645 0.374997401677978 -0.199413495972309
outer loop
vertex 0.0113315867973569 -0.00504621057957111 0.0167704639786386
vertex 0.0111318565052546 -0.00505595824451015 0.0176588955249908
vertex 0.0112956992195759 -0.00468802814208688 0.0176069538126161
endloop
endfacet
facet normal -0.905323812985645 0.374997401677978 -0.199413495972309
outer loop
vertex 0.0113315867973569 -0.00504621057957111 0.0167704639786386
vertex 0.0112956992195759 -0.00468802814208688 0.0176069538126161
vertex 0.0115743487996322 -0.00446013126124913 0.0167704639786386
endloop
endfacet
facet normal -0.905323812985645 0.374997401677978 -0.199413495972309
outer loop
vertex 0.0115743487996322 -0.00446013126124913 0.0167704639786386
vertex 0.0112956992195759 -0.00468802814208688 0.0176069538126161
vertex 0.0114400107956575 -0.00431200797731613 0.0176588955249908
endloop
endfacet
facet normal -0.905323812985645 0.374997401677978 -0.199413495972309
outer loop
vertex 0.0115743487996322 -0.00446013126124913 0.0167704639786386
vertex 0.0114400107956575 -0.00431200797731613 0.0176588955249908
vertex 0.0117785901552772 -0.00388149267639135 0.0169313528032088
endloop
endfacet
facet normal -0.905323812985645 0.374997401677978 -0.199413495972309
outer loop
vertex 0.0117785901552772 -0.00388149267639135 0.0169313528032088
vertex 0.0114400107956575 -0.00431200797731613 0.0176588955249908
vertex 0.0115549566380755 -0.00395352290302432 0.0178111809202544
endloop
endfacet
facet normal -0.905323812985645 0.374997401677978 -0.199413495972309
outer loop
vertex 0.0117785901552772 -0.00388149267639135 0.0169313528032088
vertex 0.0115549566380755 -0.00395352290302432 0.0178111809202544
vertex 0.0116327033776262 -0.00363700308459984 0.0180534320003832
endloop
endfacet
facet normal -0.905323812985645 0.374997401677978 -0.199413495972309
outer loop
vertex 0.0117785901552772 -0.00388149267639135 0.0169313528032088
vertex 0.0116327033776262 -0.00363700308459984 0.0180534320003832
vertex 0.0119303921534294 -0.00334972808831037 0.0172421661448362
endloop
endfacet
facet normal -0.905323812985645 0.374997401677978 -0.199413495972309
outer loop
vertex 0.0119303921534294 -0.00334972808831037 0.0172421661448362
vertex 0.0116327033776262 -0.00363700308459984 0.0180534320003832
vertex 0.0116679527024917 -0.00338401882459459 0.0183691397546052
endloop
endfacet
facet normal -0.905323812985645 0.374997401677978 -0.199413495972309
outer loop
vertex 0.0119303921534294 -0.00334972808831037 0.0172421661448362
vertex 0.0116679527024917 -0.00338401882459459 0.0183691397546052
vertex 0.0116583024294347 -0.00321181058225167 0.018736789221202
endloop
endfacet
facet normal -0.905323812985645 0.374997401677978 -0.199413495972309
outer loop
vertex 0.0119303921534294 -0.00334972808831037 0.0172421661448362
vertex 0.0116583024294347 -0.00321181058225167 0.018736789221202
vertex 0.0120194097387794 -0.00290107637490136 0.0176817225879321
endloop
endfacet
facet normal -0.905323812985645 0.374997401677978 -0.199413495972309
outer loop
vertex 0.0120194097387794 -0.00290107637490136 0.0176817225879321
vertex 0.0116583024294347 -0.00321181058225167 0.018736789221202
vertex 0.0116044102086163 -0.00313211406469917 0.0191313256965944
endloop
endfacet
facet normal -0.905323812985645 0.374997401677978 -0.199413495972309
outer loop
vertex 0.0120194097387794 -0.00290107637490136 0.0176817225879321
vertex 0.0116044102086163 -0.00313211406469917 0.0191313256965944
vertex 0.0115382442666192 -0.00307019597209443 0.0195481516808989
endloop
endfacet
facet normal -0.905323812985645 0.374997401677978 -0.199413495972309
outer loop
vertex 0.0120194097387794 -0.00290107637490136 0.0176817225879321
vertex 0.0115382442666192 -0.00307019597209443 0.0195481516808989
vertex 0.011696924774875 -0.00242418141314412 0.0200425843058878
endloop
endfacet
facet normal -0.905323812985645 0.374997401677978 -0.199413495972309
outer loop
vertex 0.0120194097387794 -0.00290107637490136 0.0176817225879321
vertex 0.011696924774875 -0.00242418141314412 0.0200425843058878
vertex 0.0120395765099942 -0.00256611240900114 0.0182200670873009
endloop
endfacet
facet normal -0.905323812985645 0.374997401677978 -0.199413495972309
outer loop
vertex 0.0120395765099942 -0.00256611240900114 0.0182200670873009
vertex 0.011696924774875 -0.00242418141314412 0.0200425843058878
vertex 0.0119895181349425 -0.00236766343133168 0.018820512354967
endloop
endfacet
facet normal -0.905323812985645 0.374997401677978 -0.199413495972309
outer loop
vertex 0.0119895181349425 -0.00236766343133168 0.018820512354967
vertex 0.011696924774875 -0.00242418141314412 0.0200425843058878
vertex 0.0118726460091588 -0.00231925341176872 0.0194421390382217
endloop
endfacet
facet normal 0.423530597753261 0.761947024641964 -0.489957716957315
outer loop
vertex 0.0120395765099942 -0.00256611240900114 0.0182200670873009
vertex 0.0163480308645124 -0.00469404995155467 0.0186351775385705
vertex 0.0120194097387794 -0.00290107637490136 0.0176817225879321
endloop
endfacet
facet normal 0.423530597753261 0.761947024641964 -0.489957716957315
outer loop
vertex 0.0163480308645124 -0.00469404995155467 0.0186351775385705
vertex 0.0120395765099942 -0.00256611240900114 0.0182200670873009
vertex 0.0163681976357272 -0.00435908598565445 0.0191735220379393
endloop
endfacet
facet normal 0.417327090846973 0.872648039461749 -0.253620776887007
outer loop
vertex 0.0119895181349425 -0.00236766343133168 0.018820512354967
vertex 0.0163681976357272 -0.00435908598565445 0.0191735220379393
vertex 0.0120395765099942 -0.00256611240900114 0.0182200670873009
endloop
endfacet
facet normal 0.417327090846973 0.872648039461749 -0.253620776887007
outer loop
vertex 0.0163681976357272 -0.00435908598565445 0.0191735220379393
vertex 0.0119895181349425 -0.00236766343133168 0.018820512354967
vertex 0.0163181392606755 -0.00416063700798499 0.0197739673056054
endloop
endfacet
facet normal -0.382683432365089 -0.923879532511287 -1.02450702926595e-15
outer loop
vertex 0.0144741787834792 -0.00861235140051235 0.0197739673056054
vertex 0.0100286855319625 -0.00677096780429608 0.0194421390382217
vertex 0.0101455576577462 -0.00681937782385904 0.018820512354967
endloop
endfacet
facet normal -0.382683432365089 -0.923879532511287 -1.02450702926595e-15
outer loop
vertex 0.0100286855319625 -0.00677096780429608 0.0194421390382217
vertex 0.0144741787834792 -0.00861235140051235 0.0197739673056054
vertex 0.0143573066576955 -0.00856394138094939 0.0203955939888601
endloop
endfacet
facet normal 0.184234047435339 -0.0763122410986054 -0.979915433914632
outer loop
vertex 0.0115743487996322 -0.00446013126124913 0.0167704639786386
vertex 0.0156602079230899 -0.00683918415622442 0.017723918929277
vertex 0.0113315867973569 -0.00504621057957111 0.0167704639786386
endloop
endfacet
facet normal 0.184234047435339 -0.0763122410986054 -0.979915433914632
outer loop
vertex 0.0156602079230899 -0.00683918415622442 0.017723918929277
vertex 0.0115743487996322 -0.00446013126124913 0.0167704639786386
vertex 0.0159029699253653 -0.00625310483790244 0.017723918929277
endloop
endfacet
facet normal 0.277002185040847 0.165405653855194 -0.946525625197402
outer loop
vertex 0.0117785901552772 -0.00388149267639135 0.0169313528032088
vertex 0.0159029699253653 -0.00625310483790244 0.017723918929277
vertex 0.0115743487996322 -0.00446013126124913 0.0167704639786386
endloop
endfacet
facet normal 0.277002185040847 0.165405653855194 -0.946525625197402
outer loop
vertex 0.0159029699253653 -0.00625310483790244 0.017723918929277
vertex 0.0117785901552772 -0.00388149267639135 0.0169313528032088
vertex 0.0161072112810102 -0.00567446625304466 0.0178848077538473
endloop
endfacet
facet normal 0.400871194340071 0.599320579269822 -0.692904848310394
outer loop
vertex 0.0120194097387794 -0.00290107637490136 0.0176817225879321
vertex 0.0162590132791624 -0.00514270166496367 0.0181956210954746
vertex 0.0119303921534294 -0.00334972808831037 0.0172421661448362
endloop
endfacet
facet normal 0.400871194340071 0.599320579269822 -0.692904848310394
outer loop
vertex 0.0162590132791624 -0.00514270166496367 0.0181956210954746
vertex 0.0120194097387794 -0.00290107637490136 0.0176817225879321
vertex 0.0163480308645124 -0.00469404995155467 0.0186351775385705
endloop
endfacet
facet normal 0.382683432365089 0.923879532511287 1.02450702926596e-15
outer loop
vertex 0.0118726460091588 -0.00231925341176872 0.0194421390382217
vertex 0.0163181392606755 -0.00416063700798499 0.0197739673056054
vertex 0.0119895181349425 -0.00236766343133168 0.018820512354967
endloop
endfacet
facet normal 0.382683432365089 0.923879532511287 1.02450702926596e-15
outer loop
vertex 0.0163181392606755 -0.00416063700798499 0.0197739673056054
vertex 0.0118726460091588 -0.00231925341176872 0.0194421390382217
vertex 0.0162012671348919 -0.00411222698842202 0.0203955939888601
endloop
endfacet
facet normal 0.239296550317921 0.838259265740567 0.489957716957319
outer loop
vertex 0.0114743295438144 -0.00267529676556588 0.0205809288052566
vertex 0.016025545900608 -0.00421715498979743 0.0209960392565262
vertex 0.011696924774875 -0.00242418141314412 0.0200425843058878
endloop
endfacet
facet normal 0.239296550317921 0.838259265740567 0.489957716957319
outer loop
vertex 0.016025545900608 -0.00421715498979743 0.0209960392565262
vertex 0.0114743295438144 -0.00267529676556588 0.0205809288052566
vertex 0.0158029506695474 -0.00446827034221919 0.021534383755895
endloop
endfacet
facet normal -0.905323812985645 0.374997401677977 -0.199413495972313
outer loop
vertex 0.00999879392812558 -0.0062375548607264 0.0205809288052566
vertex 0.01032322436886 -0.00600351348781776 0.0195481516808989
vertex 0.00997862715691085 -0.00657251882662662 0.0200425843058878
endloop
endfacet
facet normal -0.905323812985645 0.374997401677977 -0.199413495972313
outer loop
vertex 0.01032322436886 -0.00600351348781776 0.0195481516808989
vertex 0.00999879392812558 -0.0062375548607264 0.0205809288052566
vertex 0.0100878115134756 -0.00578890314731739 0.0210204852483525
endloop
endfacet
facet normal -0.905323812985645 0.374997401677977 -0.199413495972313
outer loop
vertex 0.01032322436886 -0.00600351348781776 0.0195481516808989
vertex 0.0100878115134756 -0.00578890314731739 0.0210204852483525
vertex 0.0103599012374703 -0.00592682065337609 0.0195258621719867
endloop
endfacet
facet normal -0.905323812985645 0.374997401677977 -0.199413495972313
outer loop
vertex 0.0103599012374703 -0.00592682065337609 0.0195258621719867
vertex 0.0100878115134756 -0.00578890314731739 0.0210204852483525
vertex 0.0103502509644133 -0.00575461241103316 0.0198935116385835
endloop
endfacet
facet normal -0.905323812985645 0.374997401677977 -0.199413495972313
outer loop
vertex 0.0103502509644133 -0.00575461241103316 0.0198935116385835
vertex 0.0100878115134756 -0.00578890314731739 0.0210204852483525
vertex 0.0102396135116278 -0.0052571385592364 0.0213312985899798
endloop
endfacet
facet normal -0.905323812985645 0.374997401677977 -0.199413495972313
outer loop
vertex 0.0103502509644133 -0.00575461241103316 0.0198935116385835
vertex 0.0102396135116278 -0.0052571385592364 0.0213312985899798
vertex 0.0103855002892788 -0.00550162815102791 0.0202092193928055
endloop
endfacet
facet normal -0.905323812985645 0.374997401677977 -0.199413495972313
outer loop
vertex 0.0103855002892788 -0.00550162815102791 0.0202092193928055
vertex 0.0102396135116278 -0.0052571385592364 0.0213312985899798
vertex 0.0104632470288295 -0.00518510833260343 0.0204514704729343
endloop
endfacet
facet normal -0.905323812985645 0.374997401677977 -0.199413495972313
outer loop
vertex 0.0104632470288295 -0.00518510833260343 0.0204514704729343
vertex 0.0102396135116278 -0.0052571385592364 0.0213312985899798
vertex 0.0104438548672728 -0.00467849997437862 0.0214921874145501
endloop
endfacet
facet normal -0.905323812985645 0.374997401677977 -0.199413495972313
outer loop
vertex 0.0104632470288295 -0.00518510833260343 0.0204514704729343
vertex 0.0104438548672728 -0.00467849997437862 0.0214921874145501
vertex 0.0105781928712475 -0.00482662325831162 0.0206037558681979
endloop
endfacet
facet normal -0.905323812985645 0.374997401677977 -0.199413495972313
outer loop
vertex 0.0105781928712475 -0.00482662325831162 0.0206037558681979
vertex 0.0104438548672728 -0.00467849997437862 0.0214921874145501
vertex 0.0107225044473291 -0.00445060309354087 0.0206556975805726
endloop
endfacet
facet normal -0.905323812985645 0.374997401677977 -0.199413495972313
outer loop
vertex 0.0107225044473291 -0.00445060309354087 0.0206556975805726
vertex 0.0104438548672728 -0.00467849997437862 0.0214921874145501
vertex 0.0106866168695481 -0.00409242065605664 0.0214921874145501
endloop
endfacet
facet normal -0.905323812985645 0.374997401677977 -0.199413495972313
outer loop
vertex 0.0107225044473291 -0.00445060309354087 0.0206556975805726
vertex 0.0106866168695481 -0.00409242065605664 0.0214921874145501
vertex 0.0108863471616504 -0.0040826729911176 0.0206037558681979
endloop
endfacet
facet normal -0.905323812985645 0.374997401677977 -0.199413495972313
outer loop
vertex 0.0108863471616504 -0.0040826729911176 0.0206037558681979
vertex 0.0106866168695481 -0.00409242065605664 0.0214921874145501
vertex 0.0109513556891819 -0.00353884094127222 0.0213312985899798
endloop
endfacet
facet normal -0.905323812985645 0.374997401677977 -0.199413495972313
outer loop
vertex 0.0108863471616504 -0.0040826729911176 0.0206037558681979
vertex 0.0109513556891819 -0.00353884094127222 0.0213312985899798
vertex 0.0110585554039933 -0.00374790677948872 0.0204514704729343
endloop
endfacet
facet normal -0.905323812985645 0.374997401677977 -0.199413495972313
outer loop
vertex 0.0110585554039933 -0.00374790677948872 0.0204514704729343
vertex 0.0109513556891819 -0.00353884094127222 0.0213312985899798
vertex 0.0112273934672297 -0.00346911822274941 0.0202092193928055
endloop
endfacet
facet normal -0.905323812985645 0.374997401677977 -0.199413495972313
outer loop
vertex 0.0112273934672297 -0.00346911822274941 0.0202092193928055
vertex 0.0109513556891819 -0.00353884094127222 0.0213312985899798
vertex 0.0112200298131178 -0.0030554863727542 0.0210204852483525
endloop
endfacet
facet normal -0.905323812985645 0.374997401677977 -0.199413495972313
outer loop
vertex 0.0112273934672297 -0.00346911822274941 0.0202092193928055
vertex 0.0112200298131178 -0.0030554863727542 0.0210204852483525
vertex 0.0113813553163683 -0.00326530630032158 0.0198935116385835
endloop
endfacet
facet normal -0.905323812985645 0.374997401677977 -0.199413495972313
outer loop
vertex 0.0113813553163683 -0.00326530630032158 0.0198935116385835
vertex 0.0112200298131178 -0.0030554863727542 0.0210204852483525
vertex 0.011509948705824 -0.00315036045790357 0.0195258621719867
endloop
endfacet
facet normal -0.905323812985645 0.374997401677977 -0.199413495972313
outer loop
vertex 0.011509948705824 -0.00315036045790357 0.0195258621719867
vertex 0.0112200298131178 -0.0030554863727542 0.0210204852483525
vertex 0.0115382442666192 -0.00307019597209443 0.0195481516808989
endloop
endfacet
facet normal -0.905323812985645 0.374997401677977 -0.199413495972313
outer loop
vertex 0.0115382442666192 -0.00307019597209443 0.0195481516808989
vertex 0.0112200298131178 -0.0030554863727542 0.0210204852483525
vertex 0.011696924774875 -0.00242418141314412 0.0200425843058878
endloop
endfacet
facet normal -0.905323812985645 0.374997401677977 -0.199413495972313
outer loop
vertex 0.011696924774875 -0.00242418141314412 0.0200425843058878
vertex 0.0112200298131178 -0.0030554863727542 0.0210204852483525
vertex 0.0114743295438144 -0.00267529676556588 0.0205809288052566
endloop
endfacet
facet normal -0.423530597753261 -0.761947024641963 0.489957716957315
outer loop
vertex 0.0143072482826439 -0.00836549240327993 0.0209960392565262
vertex 0.00999879392812558 -0.0062375548607264 0.0205809288052566
vertex 0.00997862715691085 -0.00657251882662662 0.0200425843058878
endloop
endfacet
facet normal -0.423530597753261 -0.761947024641963 0.489957716957315
outer loop
vertex 0.00999879392812558 -0.0062375548607264 0.0205809288052566
vertex 0.0143072482826439 -0.00836549240327993 0.0209960392565262
vertex 0.0143274150538586 -0.00803052843737971 0.021534383755895
endloop
endfacet
facet normal 0.140324905806126 0.707242385606555 0.692904848310394
outer loop
vertex 0.0112200298131178 -0.0030554863727542 0.0210204852483525
vertex 0.0158029506695474 -0.00446827034221919 0.021534383755895
vertex 0.0114743295438144 -0.00267529676556588 0.0205809288052566
endloop
endfacet
facet normal 0.140324905806126 0.707242385606555 0.692904848310394
outer loop
vertex 0.0158029506695474 -0.00446827034221919 0.021534383755895
vertex 0.0112200298131178 -0.0030554863727542 0.0210204852483525
vertex 0.0155486509388508 -0.00484845994940751 0.0219739401989909
endloop
endfacet
facet normal -0.277002185040847 -0.165405653855194 0.946525625197402
outer loop
vertex 0.0145682346373608 -0.00705011213588971 0.0222847535406183
vertex 0.0104438548672728 -0.00467849997437862 0.0214921874145501
vertex 0.0102396135116278 -0.0052571385592364 0.0213312985899798
endloop
endfacet
facet normal -0.277002185040847 -0.165405653855194 0.946525625197402
outer loop
vertex 0.0104438548672728 -0.00467849997437862 0.0214921874145501
vertex 0.0145682346373608 -0.00705011213588971 0.0222847535406183
vertex 0.0147724759930058 -0.00647147355103193 0.0224456423651885
endloop
endfacet
facet normal -0.350893081503577 -0.395851426844531 0.848631659330521
outer loop
vertex 0.0144164326392086 -0.0075818767239707 0.0219739401989909
vertex 0.0102396135116278 -0.0052571385592364 0.0213312985899798
vertex 0.0100878115134756 -0.00578890314731739 0.0210204852483525
endloop
endfacet
facet normal -0.350893081503577 -0.395851426844531 0.848631659330521
outer loop
vertex 0.0102396135116278 -0.0052571385592364 0.0213312985899798
vertex 0.0144164326392086 -0.0075818767239707 0.0219739401989909
vertex 0.0145682346373608 -0.00705011213588971 0.0222847535406183
endloop
endfacet
facet normal -0.400871194340071 -0.599320579269822 0.692904848310394
outer loop
vertex 0.0143274150538586 -0.00803052843737971 0.021534383755895
vertex 0.0100878115134756 -0.00578890314731739 0.0210204852483525
vertex 0.00999879392812558 -0.0062375548607264 0.0205809288052566
endloop
endfacet
facet normal -0.400871194340071 -0.599320579269822 0.692904848310394
outer loop
vertex 0.0100878115134756 -0.00578890314731739 0.0210204852483525
vertex 0.0143274150538586 -0.00803052843737971 0.021534383755895
vertex 0.0144164326392086 -0.0075818767239707 0.0219739401989909
endloop
endfacet
facet normal -0.184234047435339 0.0763122410986049 0.979915433914632
outer loop
vertex 0.0147724759930058 -0.00647147355103193 0.0224456423651885
vertex 0.0106866168695481 -0.00409242065605664 0.0214921874145501
vertex 0.0104438548672728 -0.00467849997437862 0.0214921874145501
endloop
endfacet
facet normal -0.184234047435339 0.0763122410986049 0.979915433914632
outer loop
vertex 0.0106866168695481 -0.00409242065605664 0.0214921874145501
vertex 0.0147724759930058 -0.00647147355103193 0.0224456423651885
vertex 0.0150152379952811 -0.00588539423270995 0.0224456423651885
endloop
endfacet
facet normal 0.0317903508615136 0.528028105666758 0.848631659330523
outer loop
vertex 0.015279976814915 -0.00533181451792553 0.0222847535406183
vertex 0.0112200298131178 -0.0030554863727542 0.0210204852483525
vertex 0.0109513556891819 -0.00353884094127222 0.0213312985899798
endloop
endfacet
facet normal 0.0317903508615136 0.528028105666758 0.848631659330523
outer loop
vertex 0.0112200298131178 -0.0030554863727542 0.0210204852483525
vertex 0.015279976814915 -0.00533181451792553 0.0222847535406183
vertex 0.0155486509388508 -0.00484845994940751 0.0219739401989909
endloop
endfacet
endsolid fp
